# xmcd
#
# Track frame offsets:
#	150
#	20757
#	35775
#	53272
#	74417
#	94192
#	105612
#	121550
#	134847
#	155477
#	168455
#	186330
#	201547
#	214030
#
# Disc length: 3076 seconds
#
# Revision: 3
# Processed by: cddbd v1.5.2PL0 Copyright (c) Steve Scherf et al.
# Submitted via: audiograbber 1.83.01
#
DISCID=cf0c020e
DTITLE=Various Artist - Prime Chops - Blind Pig Sampler
DYEAR=1990
DGENRE=Blues
TTITLE0=Big Daddy Kinsey and Sons - Can't Let Go
TTITLE1=Hubert Sumlin - Bring Your Love To Me
TTITLE2=Joanna Connor - When You're Being Nice
TTITLE3=Otis Rush - Crosscut Saw
TTITLE4=Pinetop Perkins - Sit in the Easy Chair
TTITLE5=Mr.B and J.C.Heard - He May Be Your Man
TTITLE6=Mitch Woods And His Rocket 88s - Broke
TTITLE7=Henry Gray - Gray's Bounce
TTITLE8=Roy Rogers - Walkin' Blues
TTITLE9=James Cotton -  My Babe
TTITLE10=Snooky Pryor - Nine Below Zero
TTITLE11=Yank Rachell - My Baby's Gone
TTITLE12=Walter Horton - Hard Hearted Woman
TTITLE13=Buddy Guy and Junior Wells - Messing With the Kid
EXTD=
EXTT0=
EXTT1=
EXTT2=
EXTT3=
EXTT4=
EXTT5=
EXTT6=
EXTT7=
EXTT8=
EXTT9=
EXTT10=
EXTT11=
EXTT12=
EXTT13=
PLAYORDER=
